ffmpeg started on 2026-03-22 at 17:36:57
Report written to "D:\Convert\FFMetrics\reports\psnr_report-6.txt"
Log level: 32
Command line:
ffmpeg -hide_banner -nostdin -r 24000/1001 -i "F:\\Convert\\files\\[DC] Make Heroine ga Oosugiru - 07_Telegram_HEVC(240).mkv" -r 24000/1001 -i "F:\\Convert\\files\\[DC] Make Heroine ga Oosugiru - 07_Telegram.mp4" -lavfi "[0:v]settb=AVTB,setpts=PTS-STARTPTS,format=pix_fmts=yuv420p10le,fps=24000/1001,scale=1920:1080:flags=lanczos:param0=3:out_range=limited:out_color_matrix=bt709:out_chroma_loc=left,setsar=1/1,setdar=(1920/1080)*(1/1),colorspace=format=yuv420p10:range=tv:primaries=bt709:trc=bt709:space=bt709:fast=0[main];[1:v]settb=AVTB,setpts=PTS-STARTPTS,format=pix_fmts=yuv420p,fps=24000/1001,scale=1920:1080:flags=lanczos:param0=3:out_range=limited:out_color_matrix=bt709:out_chroma_loc=left,setsar=1.000,setdar=1.778,colorspace=format=yuv420p:range=tv:primaries=bt709:trc=bt709:space=bt709:fast=0[ref];[main][ref]psnr=eof_action=endall:stats_file='D\\:/Convert/FFMetrics/logs/psnr_logfile-6.txt'" -f null -
Input #0, matroska,webm, from 'F:\Convert\files\[DC] Make Heroine ga Oosugiru - 07_Telegram_HEVC(240).mkv':
  Metadata:
    COMPATIBLE_BRANDS: isomiso2avc1mp41
    MAJOR_BRAND     : isom
    MINOR_VERSION   : 512
    ENCODER         : Lavf61.7.100
  Duration: 00:24:06.79, start: -0.021000, bitrate: 988 kb/s
  Stream #0:0: Video: hevc (Main 10), yuv420p10le(tv, bt709, progressive), 1920x1080 [SAR 1:1 DAR 16:9], 23.98 fps, 23.98 tbr, 1k tbn (default)
      Metadata:
        HANDLER_NAME    : VideoHandler
        VENDOR_ID       : [0][0][0][0]
        ENCODER         : Lavc61.19.100 libx265
        BPS             : 791248
        DURATION        : 00:24:06.569708333
        NUMBER_OF_FRAMES: 34683
        NUMBER_OF_BYTES : 143074397
        _STATISTICS_WRITING_APP: mkvpropedit v94.0 ('Initiate') 64-bit
        _STATISTICS_WRITING_DATE_UTC: 2026-03-21 15:06:40
        _STATISTICS_TAGS: BPS DURATION NUMBER_OF_FRAMES NUMBER_OF_BYTES
  Stream #0:1: Audio: aac (LC), 48000 Hz, stereo, fltp (default)
      Metadata:
        HANDLER_NAME    : SoundHandler
        VENDOR_ID       : [0][0][0][0]
        ENCODER         : Lavc61.19.100 aac
        BPS             : 193194
        DURATION        : 00:24:06.784000000
        NUMBER_OF_FRAMES: 67819
        NUMBER_OF_BYTES : 34938755
        _STATISTICS_WRITING_APP: mkvpropedit v94.0 ('Initiate') 64-bit
        _STATISTICS_WRITING_DATE_UTC: 2026-03-21 15:06:40
        _STATISTICS_TAGS: BPS DURATION NUMBER_OF_FRAMES NUMBER_OF_BYTES
Input #1, mov,mp4,m4a,3gp,3g2,mj2, from 'F:\Convert\files\[DC] Make Heroine ga Oosugiru - 07_Telegram.mp4':
  Metadata:
    major_brand     : isom
    minor_version   : 512
    compatible_brands: isomiso2avc1mp41
    encoder         : Lavf60.16.100
  Duration: 00:24:06.74, start: 0.000000, bitrate: 3764 kb/s
  Stream #1:0[0x1](und): Video: h264 (High) (avc1 / 0x31637661), yuv420p(tv, bt709, progressive), 1920x1080 [SAR 1:1 DAR 16:9], 3616 kb/s, 23.98 fps, 23.98 tbr, 24k tbn (default)
      Metadata:
        handler_name    : VideoHandler
        vendor_id       : [0][0][0][0]
        encoder         : Lavc60.31.102 h264_qsv
  Stream #1:1[0x2](und): Audio: aac (HE-AACv2) (mp4a / 0x6134706D), 48000 Hz, stereo, fltp, 144 kb/s (default)
      Metadata:
        handler_name    : SoundHandler
        vendor_id       : [0][0][0][0]
Stream mapping:
  Stream #0:0 (hevc) -> settb:default
  Stream #1:0 (h264) -> settb:default
  psnr:default -> Stream #0:0 (wrapped_avframe)
  Stream #0:1 -> #0:1 (aac (native) -> pcm_s16le (native))
Output #0, null, to 'pipe:':
  Metadata:
    COMPATIBLE_BRANDS: isomiso2avc1mp41
    MAJOR_BRAND     : isom
    MINOR_VERSION   : 512
    encoder         : Lavf61.7.100
  Stream #0:0: Video: wrapped_avframe, yuv420p10le(tv, bt709, progressive), 1920x1080 [SAR 1:1 DAR 16:9], q=2-31, 200 kb/s, 23.98 fps, 23.98 tbn
      Metadata:
        encoder         : Lavc61.19.100 wrapped_avframe
  Stream #0:1: Audio: pcm_s16le, 48000 Hz, stereo, s16, 1536 kb/s (default)
      Metadata:
        HANDLER_NAME    : SoundHandler
        VENDOR_ID       : [0][0][0][0]
        _STATISTICS_TAGS: BPS DURATION NUMBER_OF_FRAMES NUMBER_OF_BYTES
        BPS             : 193194
        DURATION        : 00:24:06.784000000
        NUMBER_OF_FRAMES: 67819
        NUMBER_OF_BYTES : 34938755
        _STATISTICS_WRITING_APP: mkvpropedit v94.0 ('Initiate') 64-bit
        _STATISTICS_WRITING_DATE_UTC: 2026-03-21 15:06:40
        encoder         : Lavc61.19.100 pcm_s16le
frame=  143 fps=0.0 q=-0.0 size=N/A time=00:00:05.96 bitrate=N/A speed=11.3x    frame=  334 fps=322 q=-0.0 size=N/A time=00:00:13.93 bitrate=N/A speed=13.4x    frame=  547 fps=353 q=-0.0 size=N/A time=00:00:22.81 bitrate=N/A speed=14.7x    frame=  761 fps=369 q=-0.0 size=N/A time=00:00:31.74 bitrate=N/A speed=15.4x    frame=  936 fps=361 q=-0.0 size=N/A time=00:00:39.03 bitrate=N/A speed=15.1x    frame= 1092 fps=352 q=-0.0 size=N/A time=00:00:45.54 bitrate=N/A speed=14.7x    frame= 1257 fps=348 q=-0.0 size=N/A time=00:00:52.42 bitrate=N/A speed=14.5x    frame= 1421 fps=344 q=-0.0 size=N/A time=00:00:59.26 bitrate=N/A speed=14.4x    frame= 1566 fps=338 q=-0.0 size=N/A time=00:01:05.31 bitrate=N/A speed=14.1x    frame= 1731 fps=335 q=-0.0 size=N/A time=00:01:12.19 bitrate=N/A speed=  14x    frame= 1902 fps=335 q=-0.0 size=N/A time=00:01:19.32 bitrate=N/A speed=  14x    frame= 2057 fps=332 q=-0.0 size=N/A time=00:01:25.79 bitrate=N/A speed=13.9x    frame= 2180 fps=325 q=-0.0 size=N/A time=00:01:30.92 bitrate=N/A speed=13.6x    frame= 2348 fps=325 q=-0.0 size=N/A time=00:01:37.93 bitrate=N/A speed=13.6x    frame= 2478 fps=320 q=-0.0 size=N/A time=00:01:43.35 bitrate=N/A speed=13.4x    frame= 2629 fps=319 q=-0.0 size=N/A time=00:01:49.65 bitrate=N/A speed=13.3x    frame= 2820 fps=321 q=-0.0 size=N/A time=00:01:57.61 bitrate=N/A speed=13.4x    frame= 2993 fps=322 q=-0.0 size=N/A time=00:02:04.83 bitrate=N/A speed=13.4x    frame= 3193 fps=326 q=-0.0 size=N/A time=00:02:13.17 bitrate=N/A speed=13.6x    frame= 3406 fps=330 q=-0.0 size=N/A time=00:02:22.05 bitrate=N/A speed=13.8x    frame= 3616 fps=334 q=-0.0 size=N/A time=00:02:30.81 bitrate=N/A speed=13.9x    frame= 3833 fps=338 q=-0.0 size=N/A time=00:02:39.86 bitrate=N/A speed=14.1x    frame= 4039 fps=340 q=-0.0 size=N/A time=00:02:48.45 bitrate=N/A speed=14.2x    frame= 4246 fps=343 q=-0.0 size=N/A time=00:02:57.09 bitrate=N/A speed=14.3x    frame= 4452 fps=345 q=-0.0 size=N/A time=00:03:05.68 bitrate=N/A speed=14.4x    frame= 4660 fps=347 q=-0.0 size=N/A time=00:03:14.36 bitrate=N/A speed=14.5x    frame= 4859 fps=349 q=-0.0 size=N/A time=00:03:22.66 bitrate=N/A speed=14.6x    frame= 5069 fps=351 q=-0.0 size=N/A time=00:03:31.41 bitrate=N/A speed=14.6x    frame= 5275 fps=352 q=-0.0 size=N/A time=00:03:40.01 bitrate=N/A speed=14.7x    frame= 5483 fps=354 q=-0.0 size=N/A time=00:03:48.68 bitrate=N/A speed=14.8x    frame= 5689 fps=355 q=-0.0 size=N/A time=00:03:57.27 bitrate=N/A speed=14.8x    frame= 5893 fps=357 q=-0.0 size=N/A time=00:04:05.78 bitrate=N/A speed=14.9x    frame= 6093 fps=358 q=-0.0 size=N/A time=00:04:14.12 bitrate=N/A speed=14.9x    frame= 6302 fps=359 q=-0.0 size=N/A time=00:04:22.84 bitrate=N/A speed=  15x    frame= 6508 fps=360 q=-0.0 size=N/A time=00:04:31.43 bitrate=N/A speed=  15x    frame= 6713 fps=361 q=-0.0 size=N/A time=00:04:39.98 bitrate=N/A speed=15.1x    frame= 6912 fps=362 q=-0.0 size=N/A time=00:04:48.28 bitrate=N/A speed=15.1x    frame= 7122 fps=363 q=-0.0 size=N/A time=00:04:57.04 bitrate=N/A speed=15.1x    frame= 7320 fps=364 q=-0.0 size=N/A time=00:05:05.30 bitrate=N/A speed=15.2x    frame= 7513 fps=364 q=-0.0 size=N/A time=00:05:13.35 bitrate=N/A speed=15.2x    frame= 7699 fps=364 q=-0.0 size=N/A time=00:05:21.11 bitrate=N/A speed=15.2x    frame= 7910 fps=365 q=-0.0 size=N/A time=00:05:29.91 bitrate=N/A speed=15.2x    frame= 8105 fps=365 q=-0.0 size=N/A time=00:05:38.04 bitrate=N/A speed=15.2x    frame= 8303 fps=366 q=-0.0 size=N/A time=00:05:46.30 bitrate=N/A speed=15.3x    frame= 8506 fps=366 q=-0.0 size=N/A time=00:05:54.77 bitrate=N/A speed=15.3x    frame= 8708 fps=367 q=-0.0 size=N/A time=00:06:03.19 bitrate=N/A speed=15.3x    frame= 8908 fps=367 q=-0.0 size=N/A time=00:06:11.53 bitrate=N/A speed=15.3x    frame= 9102 fps=368 q=-0.0 size=N/A time=00:06:19.62 bitrate=N/A speed=15.3x    frame= 9308 fps=368 q=-0.0 size=N/A time=00:06:28.22 bitrate=N/A speed=15.4x    frame= 9517 fps=369 q=-0.0 size=N/A time=00:06:36.93 bitrate=N/A speed=15.4x    frame= 9720 fps=369 q=-0.0 size=N/A time=00:06:45.40 bitrate=N/A speed=15.4x    frame= 9924 fps=370 q=-0.0 size=N/A time=00:06:53.91 bitrate=N/A speed=15.4x    frame=10120 fps=370 q=-0.0 size=N/A time=00:07:02.08 bitrate=N/A speed=15.4x    frame=10318 fps=370 q=-0.0 size=N/A time=00:07:10.34 bitrate=N/A speed=15.4x    frame=10521 fps=371 q=-0.0 size=N/A time=00:07:18.81 bitrate=N/A speed=15.5x    frame=10712 fps=371 q=-0.0 size=N/A time=00:07:26.77 bitrate=N/A speed=15.5x    frame=10914 fps=371 q=-0.0 size=N/A time=00:07:35.20 bitrate=N/A speed=15.5x    frame=11118 fps=371 q=-0.0 size=N/A time=00:07:43.71 bitrate=N/A speed=15.5x    frame=11308 fps=371 q=-0.0 size=N/A time=00:07:51.63 bitrate=N/A speed=15.5x    frame=11507 fps=372 q=-0.0 size=N/A time=00:07:59.93 bitrate=N/A speed=15.5x    frame=11720 fps=372 q=-0.0 size=N/A time=00:08:08.82 bitrate=N/A speed=15.5x    frame=11920 fps=373 q=-0.0 size=N/A time=00:08:17.16 bitrate=N/A speed=15.5x    frame=12124 fps=373 q=-0.0 size=N/A time=00:08:25.67 bitrate=N/A speed=15.6x    frame=12325 fps=373 q=-0.0 size=N/A time=00:08:34.05 bitrate=N/A speed=15.6x    frame=12533 fps=374 q=-0.0 size=N/A time=00:08:42.73 bitrate=N/A speed=15.6x    frame=12730 fps=374 q=-0.0 size=N/A time=00:08:50.94 bitrate=N/A speed=15.6x    frame=12930 fps=374 q=-0.0 size=N/A time=00:08:59.28 bitrate=N/A speed=15.6x    frame=13134 fps=374 q=-0.0 size=N/A time=00:09:07.79 bitrate=N/A speed=15.6x    frame=13335 fps=375 q=-0.0 size=N/A time=00:09:16.18 bitrate=N/A speed=15.6x    frame=13533 fps=375 q=-0.0 size=N/A time=00:09:24.43 bitrate=N/A speed=15.6x    frame=13734 fps=375 q=-0.0 size=N/A time=00:09:32.82 bitrate=N/A speed=15.6x    frame=13939 fps=375 q=-0.0 size=N/A time=00:09:41.37 bitrate=N/A speed=15.6x    frame=14119 fps=375 q=-0.0 size=N/A time=00:09:48.87 bitrate=N/A speed=15.6x    frame=14316 fps=375 q=-0.0 size=N/A time=00:09:57.09 bitrate=N/A speed=15.6x    frame=14514 fps=375 q=-0.0 size=N/A time=00:10:05.35 bitrate=N/A speed=15.6x    frame=14719 fps=375 q=-0.0 size=N/A time=00:10:13.90 bitrate=N/A speed=15.7x    frame=14907 fps=375 q=-0.0 size=N/A time=00:10:21.74 bitrate=N/A speed=15.7x    frame=15100 fps=375 q=-0.0 size=N/A time=00:10:29.79 bitrate=N/A speed=15.7x    frame=15272 fps=375 q=-0.0 size=N/A time=00:10:36.96 bitrate=N/A speed=15.6x    frame=15481 fps=375 q=-0.0 size=N/A time=00:10:45.68 bitrate=N/A speed=15.6x    frame=15678 fps=375 q=-0.0 size=N/A time=00:10:53.90 bitrate=N/A speed=15.6x    frame=15885 fps=376 q=-0.0 size=N/A time=00:11:02.53 bitrate=N/A speed=15.7x    frame=16079 fps=376 q=-0.0 size=N/A time=00:11:10.62 bitrate=N/A speed=15.7x    frame=16294 fps=376 q=-0.0 size=N/A time=00:11:19.59 bitrate=N/A speed=15.7x    frame=16484 fps=376 q=-0.0 size=N/A time=00:11:27.52 bitrate=N/A speed=15.7x    frame=16677 fps=376 q=-0.0 size=N/A time=00:11:35.56 bitrate=N/A speed=15.7x    frame=16873 fps=376 q=-0.0 size=N/A time=00:11:43.74 bitrate=N/A speed=15.7x    frame=17081 fps=376 q=-0.0 size=N/A time=00:11:52.42 bitrate=N/A speed=15.7x    frame=17284 fps=376 q=-0.0 size=N/A time=00:12:00.88 bitrate=N/A speed=15.7x    frame=17485 fps=377 q=-0.0 size=N/A time=00:12:09.27 bitrate=N/A speed=15.7x    frame=17678 fps=377 q=-0.0 size=N/A time=00:12:17.31 bitrate=N/A speed=15.7x    frame=17878 fps=377 q=-0.0 size=N/A time=00:12:25.66 bitrate=N/A speed=15.7x    frame=18083 fps=377 q=-0.0 size=N/A time=00:12:34.21 bitrate=N/A speed=15.7x    frame=18280 fps=377 q=-0.0 size=N/A time=00:12:42.42 bitrate=N/A speed=15.7x    frame=18480 fps=377 q=-0.0 size=N/A time=00:12:50.77 bitrate=N/A speed=15.7x    frame=18688 fps=377 q=-0.0 size=N/A time=00:12:59.44 bitrate=N/A speed=15.7x    frame=18886 fps=377 q=-0.0 size=N/A time=00:13:07.70 bitrate=N/A speed=15.7x    frame=19092 fps=378 q=-0.0 size=N/A time=00:13:16.29 bitrate=N/A speed=15.8x    frame=19302 fps=378 q=-0.0 size=N/A time=00:13:25.05 bitrate=N/A speed=15.8x    frame=19518 fps=378 q=-0.0 size=N/A time=00:13:34.06 bitrate=N/A speed=15.8x    frame=19718 fps=378 q=-0.0 size=N/A time=00:13:42.40 bitrate=N/A speed=15.8x    frame=19924 fps=379 q=-0.0 size=N/A time=00:13:50.99 bitrate=N/A speed=15.8x    frame=20137 fps=379 q=-0.0 size=N/A time=00:13:59.88 bitrate=N/A speed=15.8x    frame=20339 fps=379 q=-0.0 size=N/A time=00:14:08.30 bitrate=N/A speed=15.8x    frame=20525 fps=379 q=-0.0 size=N/A time=00:14:16.06 bitrate=N/A speed=15.8x    frame=20710 fps=379 q=-0.0 size=N/A time=00:14:23.77 bitrate=N/A speed=15.8x    frame=20923 fps=379 q=-0.0 size=N/A time=00:14:32.66 bitrate=N/A speed=15.8x    frame=21124 fps=379 q=-0.0 size=N/A time=00:14:41.04 bitrate=N/A speed=15.8x    frame=21325 fps=379 q=-0.0 size=N/A time=00:14:49.43 bitrate=N/A speed=15.8x    frame=21535 fps=379 q=-0.0 size=N/A time=00:14:58.18 bitrate=N/A speed=15.8x    frame=21741 fps=380 q=-0.0 size=N/A time=00:15:06.78 bitrate=N/A speed=15.8x    frame=21926 fps=380 q=-0.0 size=N/A time=00:15:14.49 bitrate=N/A speed=15.8x    frame=22129 fps=380 q=-0.0 size=N/A time=00:15:22.96 bitrate=N/A speed=15.8x    frame=22339 fps=380 q=-0.0 size=N/A time=00:15:31.72 bitrate=N/A speed=15.8x    frame=22548 fps=380 q=-0.0 size=N/A time=00:15:40.43 bitrate=N/A speed=15.9x    frame=22747 fps=380 q=-0.0 size=N/A time=00:15:48.73 bitrate=N/A speed=15.9x    frame=22942 fps=380 q=-0.0 size=N/A time=00:15:56.87 bitrate=N/A speed=15.9x    frame=23156 fps=380 q=-0.0 size=N/A time=00:16:05.79 bitrate=N/A speed=15.9x    frame=23356 fps=381 q=-0.0 size=N/A time=00:16:14.13 bitrate=N/A speed=15.9x    frame=23562 fps=381 q=-0.0 size=N/A time=00:16:22.73 bitrate=N/A speed=15.9x    frame=23760 fps=381 q=-0.0 size=N/A time=00:16:30.99 bitrate=N/A speed=15.9x    frame=23969 fps=381 q=-0.0 size=N/A time=00:16:39.70 bitrate=N/A speed=15.9x    frame=24161 fps=381 q=-0.0 size=N/A time=00:16:47.71 bitrate=N/A speed=15.9x    frame=24366 fps=381 q=-0.0 size=N/A time=00:16:56.26 bitrate=N/A speed=15.9x    frame=24576 fps=381 q=-0.0 size=N/A time=00:17:05.02 bitrate=N/A speed=15.9x    frame=24774 fps=381 q=-0.0 size=N/A time=00:17:13.28 bitrate=N/A speed=15.9x    frame=24982 fps=381 q=-0.0 size=N/A time=00:17:21.95 bitrate=N/A speed=15.9x    frame=25198 fps=382 q=-0.0 size=N/A time=00:17:30.96 bitrate=N/A speed=15.9x    frame=25400 fps=382 q=-0.0 size=N/A time=00:17:39.39 bitrate=N/A speed=15.9x    frame=25599 fps=382 q=-0.0 size=N/A time=00:17:47.69 bitrate=N/A speed=15.9x    frame=25803 fps=382 q=-0.0 size=N/A time=00:17:56.20 bitrate=N/A speed=15.9x    frame=26011 fps=382 q=-0.0 size=N/A time=00:18:04.87 bitrate=N/A speed=15.9x    frame=26209 fps=382 q=-0.0 size=N/A time=00:18:13.13 bitrate=N/A speed=15.9x    frame=26421 fps=382 q=-0.0 size=N/A time=00:18:21.97 bitrate=N/A speed=15.9x    frame=26624 fps=382 q=-0.0 size=N/A time=00:18:30.44 bitrate=N/A speed=15.9x    frame=26833 fps=383 q=-0.0 size=N/A time=00:18:39.15 bitrate=N/A speed=  16x    frame=27020 fps=382 q=-0.0 size=N/A time=00:18:46.95 bitrate=N/A speed=15.9x    frame=27210 fps=382 q=-0.0 size=N/A time=00:18:54.88 bitrate=N/A speed=15.9x    frame=27399 fps=382 q=-0.0 size=N/A time=00:19:02.76 bitrate=N/A speed=15.9x    frame=27609 fps=382 q=-0.0 size=N/A time=00:19:11.52 bitrate=N/A speed=15.9x    frame=27805 fps=382 q=-0.0 size=N/A time=00:19:19.70 bitrate=N/A speed=15.9x    frame=28004 fps=382 q=-0.0 size=N/A time=00:19:28.00 bitrate=N/A speed=15.9x    frame=28207 fps=382 q=-0.0 size=N/A time=00:19:36.46 bitrate=N/A speed=15.9x    frame=28407 fps=382 q=-0.0 size=N/A time=00:19:44.80 bitrate=N/A speed=  16x    frame=28606 fps=383 q=-0.0 size=N/A time=00:19:53.10 bitrate=N/A speed=  16x    frame=28788 fps=382 q=-0.0 size=N/A time=00:20:00.69 bitrate=N/A speed=15.9x    frame=28973 fps=382 q=-0.0 size=N/A time=00:20:08.41 bitrate=N/A speed=15.9x    frame=29156 fps=382 q=-0.0 size=N/A time=00:20:16.04 bitrate=N/A speed=15.9x    frame=29345 fps=382 q=-0.0 size=N/A time=00:20:23.93 bitrate=N/A speed=15.9x    frame=29522 fps=382 q=-0.0 size=N/A time=00:20:31.31 bitrate=N/A speed=15.9x    frame=29706 fps=381 q=-0.0 size=N/A time=00:20:38.98 bitrate=N/A speed=15.9x    frame=29888 fps=381 q=-0.0 size=N/A time=00:20:46.57 bitrate=N/A speed=15.9x    frame=30044 fps=381 q=-0.0 size=N/A time=00:20:53.08 bitrate=N/A speed=15.9x    frame=30241 fps=381 q=-0.0 size=N/A time=00:21:01.30 bitrate=N/A speed=15.9x    frame=30445 fps=381 q=-0.0 size=N/A time=00:21:09.81 bitrate=N/A speed=15.9x    frame=30641 fps=381 q=-0.0 size=N/A time=00:21:17.98 bitrate=N/A speed=15.9x    frame=30840 fps=381 q=-0.0 size=N/A time=00:21:26.28 bitrate=N/A speed=15.9x    frame=31047 fps=381 q=-0.0 size=N/A time=00:21:34.91 bitrate=N/A speed=15.9x    frame=31246 fps=381 q=-0.0 size=N/A time=00:21:43.21 bitrate=N/A speed=15.9x    frame=31441 fps=381 q=-0.0 size=N/A time=00:21:51.35 bitrate=N/A speed=15.9x    frame=31643 fps=381 q=-0.0 size=N/A time=00:21:59.77 bitrate=N/A speed=15.9x    frame=31834 fps=381 q=-0.0 size=N/A time=00:22:07.74 bitrate=N/A speed=15.9x    frame=32021 fps=381 q=-0.0 size=N/A time=00:22:15.54 bitrate=N/A speed=15.9x    frame=32221 fps=381 q=-0.0 size=N/A time=00:22:23.88 bitrate=N/A speed=15.9x    frame=32420 fps=381 q=-0.0 size=N/A time=00:22:32.18 bitrate=N/A speed=15.9x    frame=32621 fps=381 q=-0.0 size=N/A time=00:22:40.56 bitrate=N/A speed=15.9x    frame=32770 fps=380 q=-0.0 size=N/A time=00:22:46.78 bitrate=N/A speed=15.9x    frame=32941 fps=380 q=-0.0 size=N/A time=00:22:53.91 bitrate=N/A speed=15.9x    frame=33131 fps=380 q=-0.0 size=N/A time=00:23:01.83 bitrate=N/A speed=15.9x    frame=33318 fps=380 q=-0.0 size=N/A time=00:23:09.63 bitrate=N/A speed=15.8x    frame=33483 fps=380 q=-0.0 size=N/A time=00:23:16.52 bitrate=N/A speed=15.8x    frame=33639 fps=379 q=-0.0 size=N/A time=00:23:23.02 bitrate=N/A speed=15.8x    frame=33780 fps=379 q=-0.0 size=N/A time=00:23:28.90 bitrate=N/A speed=15.8x    frame=33908 fps=378 q=-0.0 size=N/A time=00:23:34.24 bitrate=N/A speed=15.8x    frame=34077 fps=378 q=-0.0 size=N/A time=00:23:41.29 bitrate=N/A speed=15.7x    frame=34241 fps=377 q=-0.0 size=N/A time=00:23:48.13 bitrate=N/A speed=15.7x    frame=34376 fps=377 q=-0.0 size=N/A time=00:23:53.76 bitrate=N/A speed=15.7x    frame=34524 fps=376 q=-0.0 size=N/A time=00:23:59.93 bitrate=N/A speed=15.7x    [Parsed_psnr_16 @ 000001ff618ea8c0] PSNR y:48.931095 u:50.320196 v:50.371765 average:49.353475 min:38.042785 max:inf
[out#0/null @ 000001ff5437e740] video:14903KiB audio:271276KiB subtitle:0KiB other streams:0KiB global headers:0KiB muxing overhead: unknown
frame=34683 fps=376 q=-0.0 Lsize=N/A time=00:24:06.57 bitrate=N/A speed=15.7x    
